<?xml version="1.0" encoding="utf-8"?>
<!-- Generator: Adobe Illustrator 15.0.0, SVG Export Plug-In . SVG Version: 6.00 Build 0)  -->
<!DOCTYPE svg PUBLIC "-//W3C//DTD SVG 1.1//EN" "http://www.w3.org/Graphics/SVG/1.1/DTD/svg11.dtd">
<svg version="1.1"
	 id="svg2" xmlns:rdf="http://www.w3.org/1999/02/22-rdf-syntax-ns#" xmlns:svg="http://www.w3.org/2000/svg" xmlns:dc="http://purl.org/dc/elements/1.1/" xmlns:cc="http://creativecommons.org/ns#"
	 xmlns="http://www.w3.org/2000/svg" xmlns:xlink="http://www.w3.org/1999/xlink" x="0px" y="0px" width="1058.268px"
	 height="234.066px" viewBox="0 0 1058.268 234.066" enable-background="new 0 0 1058.268 234.066" xml:space="preserve">
<g id="g10" transform="matrix(1.3333333,0,0,-1.3333333,0,234.06667)">
	<g id="g12" transform="scale(0.1)">
		<path id="path14" fill="#EF452A" d="M3359.039,930.859c0.601-0.901-46.809-351.233-47.769-352.112
			c-1.318-1.143-334.277,55.02-335.889,56.873c-0.601,0.63,4.563,78.186,11.953,172.163c7.339,93.885,13.293,171.94,13.293,172.969
			c0.264,1.436,3.611,2.26,7.815,1.904C3012.435,982.187,3359.039,931.094,3359.039,930.859z M3621.422,1027.231
			c0,0-57.847-374.912-58.66-375.857c-2.849-2.915-140.142-50.625-141.731-49.182c-1.157,1.047,49.541,337.057,51.379,339.06
			C3473.392,942.164,3621.891,1031.791,3621.422,1027.231z M3580.025,1095.951l-155.383-85.869c0,0-316.831,62.421-317.249,62.999
			c-1.494,1.37,207.7,116.521,219.939,116.521C3334.129,1189.822,3580.025,1095.951,3580.025,1095.951z M3267.289,1276.269
			l-322.969-152.937c0,0-47.527-15.981-51.409-16.934c-3.391-0.919-4.373-2.78-3.64-6.057c6.379-27.173,6.57-41.891,2.93-159.089
			c-3.655-109.856-6.335-162.839-13.11-252.012l-2.681-34.812l-5.947-0.696c-5.208-0.747-6.16-2.358-9.778-17.944
			c-2.212-9.346-6.526-27.686-9.434-40.767c-4.102-16.75-5.061-24.126-3.318-24.58c1.663-0.425,7.09-2.036,12.751-3.384
			c8.386-2.095,483.721-115.547,494.385-118.008c8.445-1.89,18.025-3.486,21.746-3.486c5.918,0,6.848,1.201,9.104,9.844
			c1.406,5.288,3.047,11.338,3.64,13.286c1.23,4.351,5.544,6.416,90.352,41.748c70.151,29.29,96.292,39.309,121.531,48.127
			c15.864,5.552,60.22,27.268,69.17,31.575l5.94,3.215l-5.171,12.73c-3.098,6.819-5.596,16.208-5.735,20.618
			c0,4.6,10.276,101.902,22.786,216.562c12.722,114.829,22.954,209.26,22.954,209.872c0,0.758,15.396,15.861,17.219,15.861
			c0,0-1.15,26.44,0,46.04l1.619,24.39c0,0-371.58,135.498-374.421,135.498c-3.362,0-35.142,12.821-35.142,12.821l-53.364-11.481"/>
		<path id="path16" fill="#FFFFFF" d="M1373.648,935.616c21.929-46.622,39.771-85.411,40.1-86.019
			c0.652-0.762-15.659,1.121-36.057,4.38c-20.464,2.915-49.915,7.104-65.574,9.507c-15.417,2.446-29.487,4.827-30.886,5.94
			c-2.014,1.23,5.12,24.492,23.459,76.238c14.436,40.957,26.807,74.509,27.671,74.509
			C1333.072,1020.171,1351.639,982.077,1373.648,935.616z M1327.242,1201.518l-16.333,5.251c-9.39,3.032-17.402,5.35-18.215,5.35
			c-0.747,0-3.772-7.291-6.746-16.011c-4.556-13.389-18.12-51.808-130.261-369.298c-63.347-179.216-114.316-326.697-113.364-327.62
			c0.93-1.099,22.368-8.804,47.476-17.505c45.461-15.791,45.579-15.791,47.703-10.371c1.238,2.871,23.972,68.174,51.182,144.859
			c27.078,77.021,49.087,140.376,49.768,140.581c0,0,230.75-25.518,231.35-25.935c0.256-0.139,27.502-57.62,60.601-128.321
			c32.952-70.781,60.557-129.038,60.879-129.36c0.908-1.238,91.128,41.287,91.128,42.642c0,0.593-28.799,61.853-63.625,136.179
			l-63.472,135.088c0,0-19.644,43.301-20.251,43.821c-0.461,0.447-35.5,74.883-77.878,164.788l-77,164.275l3.596,9.998l3.64,10.14
			l-9.565,2.651c-8.02,2.421-50.61,18.801-50.61,18.801"/>
		<path id="path18" fill="#FFFFFF" d="M1953.968,1068.54l136.355-30.549l6.24-44.967c5.427-22.225,5.427-24.346,1.714-26.353
			c-1.926-1.051-192.07-83.243-224.129-96.969c-22.456-9.763-34.182-13.792-35.061-11.975c-0.366,1.89-6.387,47.249-13.191,101.605
			c-6.987,54.078-12.905,101.349-13.77,105.099c-0.974,4.501-0.249,6.478,2.102,6.478
			C1816.002,1070.909,1878.88,1083.349,1953.968,1068.54z M1712.284,1196.26l-17.49,1.439l-1.626-9.39
			c-0.864-4.797-5.259-26.858-9.558-48.6c-4.541-21.738-7.236-39.91-6.467-40.258c0.718-0.721,6.57-1.882,12.686-2.82
			c6.13-0.952,12.429-2.402,14.114-3.49c2.527-1.663,13.667-78.871,28.301-198.387c1.89-15.89,9.426-110.995,16.816-211.176
			c7.244-100.049,13.821-182.512,14.26-183.047c2.263-2.439,36.65-0.857,66.028,3.259c17.71,1.816,36.072,4.014,41.331,4.856
			c5.435,0.74,10.342,2,11.58,3.003c1.025,0.798-5.339,54.36-13.923,119.363c-8.306,64.929-14.546,118.748-13.564,119.487
			c0.813,0.82,17.454,8.438,37.112,16.501l35.281,15.212l184.241-133.843C2293.761,516.638,2296.039,515.07,2300.235,520
			c2.095,2.769,15.498,21.379,29.656,41.038l25.964,35.537l-158.972,115.188c-87.861,63.069-159.155,115.635-159.551,116.492
			c0,0.916,18.941,9.587,42.056,19.453c34.131,15.059,51.628,20.933,93.662,31.663l56.008,18.765c0,0,2.285,17.212-10.32,46.985
			c-7.251,16.846-16.78,63.999-20.83,79.592l-7.69,28.539l6.665,31.78c3.45,17.399,5.757,31.941,5.405,32.432
			c-0.542,0.509-64.189,14.209-64.189,14.209l-167.073,36.05c0,0-248.108,27.7-258.75,28.539"/>
		<path id="path20" fill="#FFFFFF" d="M4227.054,1264.591c-26.331-0.652-48.406-1.791-48.406-1.791
			c-0.593-0.352,8.972-395.911,10.071-416.558c0.322-12.166,0-14.004-2.886-10.627c-1.882,2.227-50.61,80.643-108.523,174.023
			l-105.498,170.002l2.747,41.777l2.629,41.66l-23.32,2.882c-29.443,3.571-134.619-50.969-134.619-50.969l5.061-8.829
			c4.102-8.32,5.493-29.751,10.503-209.67l5.552-200.325l-12.693-151.37c-6.687-82.888-11.873-151.934-11.104-152.586
			c1.033-1.04,142.104,19.094,142.222,20.237c0,1.23-2.285,83.906-4.922,184.153c-5.537,198.823-5.537,195.634-1.56,255.439
			c2.285,40.356,2.402,40.983,6.907,35.812c2.82-3.358,56.433-89.095,119.905-191.517l114.683-185.581l1.677-50.259
			c0.791-27.92,1.919-50.933,2.3-51.724c1.45-1.494,96.885-0.366,103.989,1.318c4.541,1.069,5.142,3.384,5.054,19.937l-0.212,18.743
			l20.625,12.319l20.039,11.873l-4.065,7.419c-2.52,4.182-12.217,19.988-21.431,35.354l-17.424,27.466l-7.324,303.878
			c-4.417,167.12-7.258,307.24-7.258,311.503C4290.189,1267.18,4296.048,1266.762,4227.054,1264.591"/>
		<path id="path22" fill="#FFFFFF" d="M2255.243,1218.771c-0.769-0.538-4.629-99.521-3.516-100.049
			c0.11-0.282,53.145-2.38,117.935-4.731c64.783-2.01,118.169-4.288,118.542-4.819c1.165-1.49,7.581-103.4,7.771-125.446
			c0.366-18.289-10.562-455.31-11.213-458.562c-0.168-1.348,125.369-3.486,125.647-1.86c0,0.718-4.307,66.343-9.595,145.408
			c-9.412,141.189-5.5,194.055-3.406,309.957c1.355,64.684,2.542,120.062,3.076,122.974c0.417,3.19,2.49,4.889,5.288,4.329
			c10.649-1.37,223.367-7.848,225.081-6.519c1.099,0.417,2.271,20.229,3.252,43.4c2.117,55.089,2.117,55.829-2.542,56.569
			C2829.322,1199.42,2256.363,1219.371,2255.243,1218.771"/>
		<path id="path24" fill="#FFFFFF" d="M553.804,1148.03l-7.874-1.49l3.772-37.368l3.933-37.471l-76.326-242.26
			c0,0,114.324-379.9,118.638-380.12c2.798,0,369.91,46.23,370.496,46.23c0.535,0,2.329,4.124,3.325,9.302
			c0.82,4.636,5.969,27.136,10.723,49.504c4.958,23.064,7.764,41.587,6.357,42.949c-1.025,1.436-1.025,10.298,0.381,20.274
			c1.465,9.551,2.673,17.439,2.388,17.856c-0.205,0-280.32-53.635-284.517-52.654c-7.368,1.78-7.947,2.915-7.478,14.758
			c0.286,9.273-100.393,209.912-100.393,209.912s73.198,240.205,73.806,240.956c0.447,0.531,351.152,5.142,351.716,5.68
			c1.538,1.121,10.071,115.21,7.551,130.803l-17.732,12.909C1012.572,1197.801,561.07,1149.172,553.804,1148.03"/>
		<path id="path26" fill="#FFFFFF" d="M6359.962,1264.36c2.981,16.49,8.24,46.67,11.99,66.68l6.482,37.02l-43.081,7.69
			c-23.621,4.189-43.594,7.518-44.224,7.148c-1.626-0.417-25.085-127.928-24.229-131.118c0.652-1.121,83.723-17.78,87.209-17.45
			C6354.645,1234.441,6357.069,1247.84,6359.962,1264.36"/>
		<path id="path28" fill="#FFFFFF" d="M5016.701,1112.43c85.723-8.569,156.519-16.271,157.412-16.849
			c1.392-1.351-47.812-181.542-50.164-184.175c-0.93-0.696-60.3-16.868-131.726-35.903c-71.719-18.611-131.66-34.651-133.103-35.251
			c-2.358-0.688-3.186,28.799-3.186,143.474c0,91.615,0.828,144.617,2.461,144.617
			C4859.699,1128.342,4930.971,1121.19,5016.701,1112.43z M4743.119,1234.862c-1.025-3.893-8.796-81.471-8.796-88.773
			c0-4.329,1.362-5.449,6.848-5.449c3.713,0,9.023-0.93,12.334-1.578l5.171-1.49V508.332h97.258c0,0,0.271,223.418,4.292,224.795
			c116.616,34.131,213.164,61.692,285.176,81.57c26.448,7.288,87.371,23.459,87.371,24.866c0,1.289,68.108,343.319,67.39,343.949
			c-1.831,1.868-439.351,43.129-442.258,44.799c-2.402,1.099-11.514,2.12-20.603,2.12c-9.287,0-31.567,1.798-49.578,3.688
			C4747.682,1238.55,4743.976,1238.55,4743.119,1234.862"/>
		<path id="path30" fill="#FFFFFF" d="M5384.025,1255.23l-3.552-212.49c-5.647-252.653-14.033-519.438-14.033-522.323
			c0-3.325,5.75-4.197,32.542-4.197c17.615-0.117,43.022-0.542,56.44-0.82l23.899-0.667v11.689c0,6.526,0.842,11.887,1.582,11.887
			c3.193,0,295.547,17.922,296.338,18.757c0.081,0.425-4.336,24.287-10.51,53.687c-5.969,28.989-10.876,52.947-10.876,53.481
			c0,0.439-245.5,6.226-245.662,6.753c-0.659,0.542-13.542,575.032-13.542,575.032L5384.025,1255.23"/>
		<path id="path32" fill="#FFFFFF" d="M5808.742,1179.641c-6.372-0.322,30.117-598.418,41.213-598.242
			c6.365,0,339.917,52.925,341.506,53.496c2.124,1.516-7.896,95.317-8.43,95.903c-0.271,0.022-257.073-9.06-257.073-4.585
			c0,2.52-8.665,119.385-7.793,120.19c0.886,0.857,188.298,26.697,189.185,27.4c1.194,1.146-9.895,93.827-11.667,95.413
			c-0.469,0.322-185.383-22.954-186.204-22.603c-1.414,1.772-11.345,135.487-9.529,136.875
			c1.062,1.121,192.239,9.163,253.821,10.741c2.168,0-22.932,97.152-22.932,97.152
			C6118.974,1191.198,5812.279,1179.641,5808.742,1179.641"/>
		<path id="path34" fill="#FFFFFF" d="M6289.503,1172.8c-0.542-0.538,50.771-601.48,51.497-601.941
			c0.52-0.725,87.085,6.204,86.755,9.265c-0.535,2.036-34.526,572.725-34.526,576.625
			C6393.229,1162.759,6290.111,1173.379,6289.503,1172.8"/>
		<path id="path36" fill="#FFFFFF" d="M6515.749,1194.67c-23.174-19.57-36.848-32.761-35.457-33.918
			c1.348-1.351,2.454-3.68,2.549-5.222c0-1.769,17.82-25.598,39.602-53.21l39.302-50.12c0,0-15.93-479.18-15.535-479.502
			c1.069-1.165,97.419-3.091,97.419-3.091s12.964,358.949,14.172,358.415c1.04-0.135,332.922-418.327,334.592-418.327
			c3.677,0.396,52.756,37.068,52.537,39.214c0,0.557-34.387,675.564-34.387,675.564s-95.544-8.58-95.984-8.95
			c-0.637-0.582,15.615-437.6,15.154-439.497c-0.293-3.259-180.798,216.394-257.512,309.265l-10.481,13.198l1.399,40.063
			c0.923,21.738,1.003,40.558,0.205,41.58c-0.535,1.15-13.535,1.941-28.63,2.208c-46.831,0.659-44.143-0.41-62.065,21.281
			c-8.76,10.481-16.589,19.83-17.476,21.039C6554.252,1225.52,6536.432,1211.981,6515.749,1194.67"/>
		<path id="path38" fill="#FFFFFF" d="M7205.485,1121.45l-44.941-0.15l-0.19-9.939l-0.059-9.76l45.491,0.67
			c32.036,0.63,45.505,0.231,45.505-1.073c-0.139-2.728-11.111-71.829-11.88-74.18c-0.725-2.219-27.847,1.414-41.382,5.731
			c-4.863,1.509-8.855,1.912-9.368,1c-0.505-0.89-1.626-5.658-2.19-10.389c-1.23-10.14-3.223-9.181,27.854-13.612l22.2-3.186
			l-0.901-5.361c-0.52-2.93-3.479-20.662-6.292-39.397c-5.808-35.643-5.808-36.533,2.322-36.694c1.912,0,4.871-0.674,6.855-1.099
			c3.582-1,3.97,0.916,9.719,37.167c3.274,20.87,6.416,38.536,6.797,39.071c0.366,0.67,8.958-1.307,19.065-4.146
			c21.042-5.852,20.859-5.852,22.859,6.409c2.073,13.488,2.073,13.488-19.277,16.538c-17.322,2.56-19.248,3.398-18.933,6.361
			c1.45,14.608,12.202,76.86,13.564,77.161c0.93,0.487,1.589,4.969,1.75,10.21v9.357l-11.653-0.249
			C7255.714,1121.589,7230.072,1121.45,7205.485,1121.45"/>
		<path id="path40" fill="#FFFFFF" d="M7324.364,1114.309c0.579-3.647,1.23-24.287,1.23-45.959l-0.176-39.327l9.902-1.611
			c7.222-1.3,10.774-1.069,11.704,0.139c0.798,1.311,11.624-0.37,36.519-5.94c19.468-4.329,35.94-8.13,36.218-8.588
			c1.172-1.223-3.486-46.648-4.849-46.648c-0.703,0-21.423-2.593-46.201-5.823c-24.858-3.153-46.34-5.757-47.71-5.757
			c-2.263,0-2.754-1.542-1.816-7.83c0.396-4.497,1.135-8.276,1.509-8.76c0.308-0.612,20.779,1.747,45.315,5.105
			c24.412,3.091,48.904,5.632,54.683,5.284c10.811-0.494,14.451,2.098,12.642,8.456c-0.549,1.703,0.11,14.656,1.597,28.542
			c1.743,18.827,3.625,27.429,6.313,32.758c3.281,6.01,3.362,7.218,1.208,7.218c-1.421,0-2.717,0.941-2.593,1.842
			c0,1.022-3.186,1.729-6.526,1.729c-6.46,0-85.474,16.981-87.239,18.563c-1.165,1.469-4.233,50.237-3.171,51.237
			c0.93,1,71.287-3.75,94.226-6.328l9.785-1.132l1.787,8.672c1.047,4.501,1.787,8.39,1.509,8.529
			c-0.161,0.231-21.921,1.589-48.398,3.721c-26.257,1.688-53.291,4.34-60.19,5.779
			C7323.083,1122.01,7322.87,1122.01,7324.364,1114.309"/>
		<path id="path42" fill="#FFFFFF" d="M7303.9,1182.34c-83.108,0.659-151.399-66.508-151.912-149.751
			c-0.549-83.181,66.526-151.311,149.875-151.937c83.086-0.557,151.267,66.526,151.838,149.81
			C7454.354,1113.708,7387.082,1181.739,7303.9,1182.34z M7301.571,863.161c-92.747,0.696-167.71,76.791-166.926,169.589
			c0.557,92.82,76.523,167.728,169.468,167.091c92.703-0.762,167.791-76.721,166.948-169.471
			C7470.563,937.594,7394.435,862.575,7301.571,863.161"/>
	</g>
</g>
</svg>
